<svg width="72" height="73" viewBox="0 0 72 73" fill="none" xmlns="http://www.w3.org/2000/svg">
<g clip-path="url(#clip0_12068_6842)">
<path d="M66.3013 19.3889C57.102 12.3164 48.1794 18.0804 38.2269 16.0424C28.2026 13.9897 24.2087 7.15494 12.7912 10.3099C2.67722 13.1045 -3.45966 24.3092 2.10037 33.6899C3.6848 36.363 6.38395 38.3797 7.48701 41.3707C9.26634 46.1957 6.55791 49.9 7.08623 54.6418C9.28167 74.3435 39.3701 66.7122 50.4413 60.5825C67.8043 50.9693 79.5504 29.5751 66.3013 19.3889Z" fill="url(#paint0_linear_12068_6842)" fill-opacity="0.12"/>
<path opacity="0.24" d="M57.8193 12.2255C57.2972 12.2255 56.775 12.0267 56.3775 11.6293C55.5825 10.8343 55.5825 9.54069 56.3775 8.7456C57.1724 7.9505 58.4662 7.9505 59.2611 8.7456C60.0561 9.54069 60.0561 10.8342 59.2611 11.6293C58.8637 12.0267 58.3416 12.2255 57.8193 12.2255ZM57.8194 9.55489C57.6573 9.55489 57.4953 9.61649 57.372 9.73996C57.1253 9.98661 57.1253 10.3881 57.372 10.6349C57.6186 10.8816 58.0201 10.8817 58.2669 10.6349C58.5136 10.3882 58.5136 9.98675 58.2669 9.73996C58.1434 9.61649 57.9814 9.55489 57.8194 9.55489Z" fill="#3366FF"/>
<path opacity="0.48" d="M61.3594 19.1008C60.8372 19.1009 60.3151 18.9021 59.9175 18.5045C59.5324 18.1193 59.3203 17.6073 59.3203 17.0627C59.3203 16.518 59.5324 16.006 59.9175 15.6209C60.7124 14.8259 62.006 14.8258 62.8011 15.6209C63.1862 16.006 63.3983 16.518 63.3983 17.0627C63.3983 17.6075 63.1862 18.1195 62.8009 18.5045C62.4038 18.9019 61.8815 19.1008 61.3594 19.1008ZM61.3594 16.4302C61.1974 16.4302 61.0352 16.4918 60.9119 16.6152C60.7922 16.7348 60.7266 16.8937 60.7266 17.0627C60.7266 17.2317 60.7924 17.3906 60.9119 17.5102C61.1587 17.757 61.5602 17.757 61.8068 17.5102C61.9265 17.3906 61.9922 17.2317 61.9922 17.0627C61.9922 16.8937 61.9264 16.7349 61.8068 16.6152C61.6835 16.4918 61.5215 16.4302 61.3594 16.4302Z" fill="#3366FF"/>
<path opacity="0.24" d="M14.8193 33.9357C14.2972 33.9357 13.7749 33.7369 13.3775 33.3394C12.5825 32.5444 12.5825 31.2507 13.3775 30.4558C14.1724 29.661 15.4662 29.6608 16.2611 30.4558C17.0561 31.2509 17.0561 32.5444 16.2611 33.3394C15.8637 33.7369 15.3414 33.9357 14.8193 33.9357ZM14.8193 31.2651C14.6573 31.2651 14.4952 31.3267 14.3718 31.4502C14.125 31.6968 14.125 32.0983 14.3718 32.3451C14.6185 32.5919 15.0201 32.5917 15.2668 32.3451C15.5136 32.0984 15.5136 31.6969 15.2668 31.4502C15.1434 31.3267 14.9814 31.2651 14.8193 31.2651Z" fill="#3366FF"/>
<path opacity="0.48" d="M13.914 40.2556C13.734 40.2556 13.5542 40.187 13.4168 40.0497L12.5781 39.211L11.7394 40.0497C11.4648 40.3242 11.0197 40.3242 10.745 40.0497C10.4704 39.7751 10.4704 39.3299 10.745 39.0554L12.081 37.7194C12.3556 37.4449 12.8007 37.4449 13.0753 37.7194L14.4113 39.0554C14.6859 39.33 14.6859 39.7752 14.4113 40.0497C14.2739 40.1868 14.094 40.2556 13.914 40.2556Z" fill="#3366FF"/>
<path opacity="0.48" d="M60.0234 60.618C59.8434 60.618 59.6635 60.5493 59.5262 60.4121L58.6875 59.5734L57.8488 60.4121C57.5741 60.6866 57.1291 60.6866 56.8544 60.4121C56.5798 60.1375 56.5798 59.6922 56.8544 59.4177L58.1904 58.0818C58.465 57.8073 58.9101 57.8073 59.1847 58.0818L60.5207 59.4177C60.7953 59.6924 60.7953 60.1376 60.5207 60.4121C60.3833 60.5492 60.2034 60.618 60.0234 60.618Z" fill="#3366FF"/>
<path d="M53.9992 39.6876L48.7264 33.9428C48.3388 33.5202 47.7917 33.2796 47.2183 33.2797H40.6721L40.6719 49.0085H43.1759C43.1759 47.0302 44.7796 45.4265 46.7579 45.4265C48.7362 45.4265 50.3399 47.0302 50.3399 49.0085H51.9519C52.4949 49.0086 53.0156 48.793 53.3996 48.409C53.7835 48.0251 53.9991 47.5044 53.999 46.9614L53.9992 39.6876Z" fill="#3366FF"/>
<circle cx="46.7617" cy="49.0085" r="3.58202" fill="#1939B7"/>
<path fill-rule="evenodd" clip-rule="evenodd" d="M40.6724 39.6876V49.0085H29.7705C29.7705 47.03 28.1665 45.4261 26.188 45.4261C24.2095 45.4261 22.6056 47.03 22.6056 49.0085H20.0471C19.5042 49.0086 18.9834 48.793 18.5995 48.409C18.2156 48.0251 17.9999 47.5044 18 46.9614V29.8703C17.9999 29.3274 18.2156 28.8066 18.5995 28.4227C18.9834 28.0388 19.5042 27.8231 20.0471 27.8232H22.2677C22.3954 31.4325 25.3583 34.2925 28.9699 34.2925C32.5814 34.2925 35.5444 31.4325 35.672 27.8232H38.6253C39.7559 27.8233 40.6723 28.7398 40.6724 29.8703V39.6876Z" fill="#84A9FF"/>
<path fill-rule="evenodd" clip-rule="evenodd" d="M35.6783 27.5977C35.6783 27.6732 35.6775 27.7486 35.6741 27.8232C35.5464 31.4325 32.5835 34.2925 28.972 34.2925C25.3604 34.2925 22.3975 31.4325 22.2698 27.8232C22.2665 27.7486 22.2656 27.6732 22.2656 27.5977C22.2656 23.8939 25.2682 20.8914 28.972 20.8914C32.6758 20.8914 35.6783 23.8939 35.6783 27.5977Z" fill="#3366FF" stroke="#3366FF"/>
<path fill-rule="evenodd" clip-rule="evenodd" d="M26.1836 45.4265C28.1619 45.4265 29.7656 47.0302 29.7656 49.0085C29.7656 50.9868 28.1619 52.5905 26.1836 52.5905C24.2053 52.5905 22.6016 50.9868 22.6016 49.0085C22.6016 47.0302 24.2053 45.4265 26.1836 45.4265Z" fill="#1939B7"/>
<path fill-rule="evenodd" clip-rule="evenodd" d="M31.2077 30.2802C31.0587 30.2804 30.9153 30.2237 30.8067 30.1218L28.5685 28.026C28.45 27.9151 28.3828 27.76 28.3828 27.5977V23.2486C28.3828 22.9245 28.6455 22.6618 28.9696 22.6618C29.2937 22.6618 29.5564 22.9245 29.5564 23.2486V27.3437L31.6089 29.2655C31.7847 29.4301 31.8421 29.6855 31.7536 29.9095C31.6651 30.1335 31.4486 30.2807 31.2078 30.2806L31.2077 30.2802Z" fill="#D6E4FF"/>
</g>
<defs>
<linearGradient id="paint0_linear_12068_6842" x1="49.3215" y1="77.5931" x2="78.973" y2="15.1775" gradientUnits="userSpaceOnUse">
<stop stop-color="#3366FF"/>
<stop offset="1" stop-color="#3366FF" stop-opacity="0.01"/>
</linearGradient>
<clipPath id="clip0_12068_6842">
<rect width="72" height="72" fill="white" transform="translate(0 0.641357)"/>
</clipPath>
</defs>
</svg>
