<svg width="54" height="54" viewBox="0 0 54 54" fill="none" xmlns="http://www.w3.org/2000/svg">
<g clip-path="url(#clip0_12068_6813)">
<path fill-rule="evenodd" clip-rule="evenodd" d="M26.5847 0.553309C26.8516 0.400862 27.1536 0.320679 27.4609 0.320679C27.7683 0.320679 28.0703 0.400862 28.3372 0.553309L53.0705 14.6866C53.3409 14.8411 53.5657 15.0643 53.7221 15.3336C53.8784 15.6029 53.9608 15.9087 53.9609 16.2201V18.7641C53.961 26.5585 51.4218 34.1408 46.7276 40.3632C42.0334 46.5856 35.4399 51.1092 27.945 53.2494C27.6286 53.3396 27.2933 53.3396 26.9769 53.2494C19.4826 51.1082 12.8897 46.5843 8.19569 40.3621C3.50167 34.14 0.961999 26.5583 0.960938 18.7641L0.960938 16.2201C0.961038 15.9087 1.04345 15.6029 1.19981 15.3336C1.35618 15.0643 1.58094 14.8411 1.85134 14.6866L26.5847 0.553309ZM25.9487 38.1656L41.2056 19.0892L38.4496 16.8844L25.4399 33.1412L16.2249 25.4633L13.9636 28.1769L25.9487 38.1656Z" fill="#3366FF"/>
</g>
<defs>
<clipPath id="clip0_12068_6813">
<rect width="53" height="53" fill="white" transform="translate(0.960938 0.320679)"/>
</clipPath>
</defs>
</svg>
