<svg width="24" height="25" viewBox="0 0 24 25" fill="none" xmlns="http://www.w3.org/2000/svg">
<path d="M15.1469 9.24405C13.5989 9.23874 12.1124 9.84925 11.015 10.941C9.91767 12.0328 9.29952 13.5161 9.29688 15.0641V20.9441C9.29688 21.1827 9.3917 21.4117 9.56048 21.5804C9.72926 21.7492 9.95818 21.8441 10.1969 21.8441H12.2969C12.7939 21.8441 13.1969 21.4411 13.1969 20.9441V15.0641C13.1965 14.5127 13.4307 13.9873 13.8409 13.619C14.2512 13.2507 14.7988 13.0744 15.3469 13.1341C16.3528 13.2608 17.1048 14.1202 17.0969 15.1341V20.9441C17.0969 21.4411 17.4998 21.8441 17.9969 21.8441H20.0969C20.5939 21.8441 20.9969 21.4411 20.9969 20.9441V15.0641C20.9942 13.5161 20.3761 12.0328 19.2787 10.941C18.1813 9.84925 16.6948 9.23874 15.1469 9.24405Z" fill="#007EBB"/>
<rect x="3" y="10.144" width="4.5" height="11.7" rx="0.9" fill="#007EBB"/>
<circle cx="5.25" cy="6.09399" r="2.25" fill="#007EBB"/>
</svg>
