<svg width="24" height="24" viewBox="0 0 24 24" fill="none" xmlns="http://www.w3.org/2000/svg">
<g clip-path="url(#clip0_12798_5298)">
<mask id="mask0_12798_5298" style="mask-type:alpha" maskUnits="userSpaceOnUse" x="0" y="0" width="24" height="24">
<rect width="24" height="24" rx="3" fill="#C4C4C4"/>
</mask>
<g mask="url(#mask0_12798_5298)">
<path d="M1.31055 0H22.6895C23.4121 0.00561535 24 0.856341 24 1.89518V22.1048C24 23.1465 23.4062 24 22.6816 24H1.31055C0.589844 23.9944 0 23.1437 0 22.1048V1.89518C0 0.856341 0.587891 0.00561535 1.31055 0Z" fill="#FF9933"/>
<path d="M0 7.99902H24V16.0009H0V7.99902Z" fill="white"/>
<path d="M0 16.001H24V22.1049C24 23.1465 23.4062 24 22.6816 24H1.31055C0.589844 23.9944 0 23.1437 0 22.1049V16.001Z" fill="#128807"/>
<path d="M14.2266 12.0001C14.2266 10.2312 13.2305 8.79932 12 8.79932C10.7695 8.79932 9.77344 10.2312 9.77344 12.0001C9.77344 13.7661 10.7695 15.2008 12 15.2008C13.2305 15.2008 14.2266 13.7689 14.2266 12.0001Z" fill="#000088"/>
<path d="M13.9492 11.9999C13.9492 10.4529 13.0781 9.20068 12.002 9.20068C10.9258 9.20068 10.0547 10.4529 10.0547 11.9999C10.0547 13.547 10.9258 14.7992 12.002 14.7992C13.0781 14.7992 13.9492 13.547 13.9492 11.9999Z" fill="white"/>
<path d="M12.3867 12C12.3867 11.6912 12.2129 11.4385 11.998 11.4385C11.7832 11.4385 11.6094 11.6884 11.6094 12C11.6094 12.3089 11.7832 12.5587 11.998 12.5587C12.2129 12.5587 12.3867 12.3089 12.3867 12Z" fill="#000088"/>
<path d="M14.0303 12.3847C14.0381 12.3089 13.999 12.2387 13.9463 12.2275C13.8936 12.2163 13.8447 12.2724 13.8369 12.3482C13.8291 12.424 13.8682 12.4942 13.9209 12.5055C13.9756 12.5139 14.0244 12.4605 14.0303 12.3847Z" fill="#000088"/>
<path d="M11.9961 14.7995L12.0625 13.1205L11.9961 12.3203L11.9297 13.1205L11.9961 14.7995Z" fill="#000088"/>
<path d="M13.8905 13.1257C13.912 13.0555 13.8866 12.9713 13.8378 12.9432C13.7889 12.9123 13.7304 12.9488 13.7108 13.019C13.6893 13.0892 13.7147 13.1734 13.7636 13.2015C13.8143 13.2296 13.871 13.1959 13.8905 13.1257Z" fill="#212B36"/>
<path d="M11.5 14.704L11.8672 13.1065L11.9473 12.3091L11.7383 13.0587L11.5 14.704Z" fill="#212B36"/>
<path d="M13.6202 13.7915C13.6534 13.7298 13.6456 13.6427 13.6026 13.595C13.5596 13.5473 13.4991 13.5585 13.4659 13.6203C13.4327 13.682 13.4405 13.7691 13.4835 13.8168C13.5264 13.8645 13.587 13.8505 13.6202 13.7915Z" fill="#212B36"/>
<path d="M11.0234 14.4257L11.666 13.0191L11.8867 12.2778L11.5508 12.9208L11.0234 14.4257Z" fill="#212B36"/>
<path d="M13.2432 14.3334C13.2862 14.2857 13.294 14.1986 13.2608 14.1369C13.2276 14.0751 13.1671 14.0639 13.1241 14.1116C13.0811 14.1593 13.0733 14.2464 13.1065 14.3081C13.1397 14.3671 13.2022 14.3811 13.2432 14.3334Z" fill="#212B36"/>
<path d="M10.625 13.9795L11.498 12.8593L11.8438 12.2275L11.4043 12.7245L10.625 13.9795Z" fill="#212B36"/>
<path d="M12.7831 14.7176C12.8319 14.6867 12.8573 14.6053 12.8358 14.5351C12.8143 14.4649 12.7577 14.4284 12.7089 14.4593C12.66 14.4874 12.6346 14.5716 12.6561 14.6418C12.6757 14.712 12.7323 14.7457 12.7831 14.7176Z" fill="#212B36"/>
<path d="M10.3125 13.4011L11.3594 12.6431L11.8066 12.1602L11.291 12.4774L10.3125 13.4011Z" fill="#212B36"/>
<path d="M12.2662 14.9146C12.319 14.9033 12.3561 14.8332 12.3502 14.7573C12.3424 14.6815 12.2936 14.6282 12.2408 14.6366C12.1881 14.6478 12.151 14.718 12.1569 14.7938C12.1627 14.8725 12.2115 14.9258 12.2662 14.9146Z" fill="#212B36"/>
<path d="M10.1172 12.7246L11.2637 12.3821L11.7832 12.0845L11.2285 12.1968L10.1172 12.7246Z" fill="#212B36"/>
<path d="M11.733 14.9142C11.7858 14.9254 11.8346 14.8692 11.8424 14.7934C11.8502 14.7176 11.8112 14.6474 11.7584 14.6362C11.7057 14.625 11.6569 14.6811 11.649 14.7569C11.6432 14.8355 11.6803 14.9057 11.733 14.9142Z" fill="#212B36"/>
<path d="M10.0547 11.9998L11.2227 12.0952L11.7793 11.9998L11.2227 11.9043L10.0547 11.9998Z" fill="#212B36"/>
<path d="M11.2159 14.7176C11.2647 14.7485 11.3233 14.712 11.3428 14.6418C11.3623 14.5716 11.3389 14.4874 11.2901 14.4593C11.2413 14.4284 11.1827 14.4649 11.1631 14.5351C11.1436 14.6053 11.167 14.6867 11.2159 14.7176Z" fill="#212B36"/>
<path d="M10.1172 11.2754L11.2285 11.8032L11.7832 11.9183L11.2637 11.6179L10.1172 11.2754Z" fill="#212B36"/>
<path d="M10.7555 14.3334C10.7984 14.3811 10.859 14.3699 10.8922 14.3081C10.9254 14.2464 10.9176 14.1593 10.8746 14.1116C10.8316 14.0639 10.7711 14.0751 10.7379 14.1369C10.7066 14.1986 10.7145 14.2857 10.7555 14.3334Z" fill="#212B36"/>
<path d="M10.3125 10.5991L11.291 11.5228L11.8066 11.8401L11.3594 11.3572L10.3125 10.5991Z" fill="#212B36"/>
<path d="M10.3794 13.7915C10.4126 13.8533 10.4731 13.8645 10.5161 13.8168C10.559 13.7691 10.5669 13.682 10.5337 13.6203C10.5004 13.5585 10.4399 13.5473 10.3969 13.595C10.3559 13.6399 10.3462 13.7298 10.3794 13.7915Z" fill="#212B36"/>
<path d="M10.625 10.0205L11.4043 11.2755L11.8438 11.7753L11.498 11.1408L10.625 10.0205Z" fill="#212B36"/>
<path d="M10.1084 13.1257C10.1299 13.1959 10.1866 13.2324 10.2354 13.2015C10.2842 13.1706 10.3096 13.0892 10.2881 13.019C10.2666 12.9488 10.21 12.9123 10.1612 12.9432C10.1123 12.9713 10.0889 13.0527 10.1084 13.1257Z" fill="#212B36"/>
<path d="M11.0234 9.57422L11.5508 11.0791L11.8867 11.7221L11.666 10.9837L11.0234 9.57422Z" fill="#212B36"/>
<path d="M9.96979 12.3847C9.9776 12.4605 10.0264 12.5138 10.0792 12.5054C10.1319 12.4942 10.169 12.424 10.1631 12.3482C10.1553 12.2724 10.1065 12.219 10.0538 12.2274C9.99908 12.2359 9.96198 12.3061 9.96979 12.3847Z" fill="#212B36"/>
<path d="M11.5 9.29639L11.7383 10.9445L11.9473 11.6913L11.8672 10.894L11.5 9.29639Z" fill="#212B36"/>
<path d="M9.96975 11.6153C9.96193 11.6911 10.001 11.7613 10.0537 11.7725C10.1065 11.7837 10.1553 11.7276 10.1631 11.6518C10.1709 11.5759 10.1319 11.5058 10.0791 11.4945C10.0244 11.4861 9.97561 11.5394 9.96975 11.6153Z" fill="#212B36"/>
<path d="M11.9961 9.20068L11.9297 10.8797L11.9961 11.6799L12.0625 10.8797L11.9961 9.20068Z" fill="#212B36"/>
<path d="M10.1093 10.8743C10.0878 10.9445 10.1132 11.0287 10.162 11.0568C10.2108 11.0848 10.2694 11.0512 10.2889 10.981C10.3104 10.9108 10.285 10.8265 10.2362 10.7985C10.1854 10.7704 10.1288 10.8041 10.1093 10.8743Z" fill="#212B36"/>
<path d="M12.502 9.29639L12.1348 10.894L12.0547 11.6913L12.2637 10.9445L12.502 9.29639Z" fill="#212B36"/>
<path d="M10.3799 10.2116C10.3467 10.2733 10.3545 10.3604 10.3975 10.4081C10.4405 10.4558 10.501 10.4446 10.5342 10.3828C10.5674 10.3211 10.5596 10.234 10.5167 10.1863C10.4737 10.1386 10.4131 10.1498 10.3799 10.2116Z" fill="#212B36"/>
<path d="M12.9727 9.57422L12.3301 10.9837L12.1094 11.7221L12.4453 11.0791L12.9727 9.57422Z" fill="#212B36"/>
<path d="M10.7569 9.66704C10.7139 9.71477 10.7061 9.80181 10.7393 9.86358C10.7725 9.92535 10.8331 9.93658 10.876 9.88885C10.919 9.84112 10.9268 9.75408 10.8936 9.69231C10.8604 9.63054 10.7979 9.62212 10.7569 9.66704Z" fill="#212B36"/>
<path d="M13.375 10.0205L12.502 11.1408L12.1562 11.7753L12.5957 11.2755L13.375 10.0205Z" fill="#212B36"/>
<path d="M11.2159 9.28489C11.167 9.31577 11.1436 9.3972 11.1631 9.46739C11.1846 9.53758 11.2413 9.57408 11.2901 9.5432C11.3389 9.51231 11.3643 9.43089 11.3428 9.3607C11.3233 9.2877 11.2666 9.254 11.2159 9.28489Z" fill="#212B36"/>
<path d="M13.6895 10.5991L12.6426 11.3572L12.1953 11.8401L12.7109 11.5228L13.6895 10.5991Z" fill="#212B36"/>
<path d="M11.733 9.08542C11.6803 9.09665 11.6432 9.16684 11.649 9.24265C11.6569 9.31845 11.7057 9.3718 11.7584 9.36338C11.8112 9.35215 11.8502 9.28195 11.8424 9.20615C11.8365 9.13034 11.7877 9.07419 11.733 9.08542Z" fill="#212B36"/>
<path d="M13.8848 11.2754L12.7383 11.6179L12.2188 11.9183L12.7734 11.8032L13.8848 11.2754Z" fill="#212B36"/>
<path d="M12.2666 9.08542C12.2139 9.07419 12.1651 9.13034 12.1572 9.20615C12.1494 9.28195 12.1885 9.35214 12.2412 9.36337C12.294 9.3746 12.3428 9.31845 12.3506 9.24264C12.3565 9.16684 12.3194 9.09384 12.2666 9.08542Z" fill="#212B36"/>
<path d="M13.9512 11.9998L12.7832 11.9043L12.2266 11.9998L12.7832 12.0952L13.9512 11.9998Z" fill="#212B36"/>
<path d="M12.7831 9.28499C12.7343 9.2541 12.6757 9.2906 12.6561 9.36079C12.6346 9.43099 12.66 9.51522 12.7089 9.54329C12.7577 9.57137 12.8163 9.53768 12.8358 9.46749C12.8553 9.39449 12.8319 9.31306 12.7831 9.28499Z" fill="#212B36"/>
<path d="M13.8848 12.7246L12.7734 12.1968L12.2188 12.0845L12.7383 12.3821L13.8848 12.7246Z" fill="#212B36"/>
<path d="M13.2432 9.66677C13.2003 9.61904 13.1397 9.63027 13.1065 9.69204C13.0733 9.75381 13.0811 9.84085 13.1241 9.88858C13.1671 9.93631 13.2276 9.92508 13.2608 9.86331C13.294 9.80154 13.2862 9.7145 13.2432 9.66677Z" fill="#212B36"/>
<path d="M13.6895 13.4011L12.7109 12.4774L12.1953 12.1602L12.6426 12.6431L13.6895 13.4011Z" fill="#212B36"/>
<path d="M13.6202 10.2116C13.587 10.1498 13.5264 10.1386 13.4835 10.1863C13.4405 10.234 13.4327 10.3211 13.4659 10.3828C13.4991 10.4446 13.5596 10.4558 13.6026 10.4081C13.6436 10.3604 13.6534 10.2705 13.6202 10.2116Z" fill="#212B36"/>
<path d="M13.375 13.9795L12.5957 12.7245L12.1562 12.2275L12.502 12.8593L13.375 13.9795Z" fill="#212B36"/>
<path d="M13.8905 10.874C13.869 10.8038 13.8124 10.7673 13.7636 10.7982C13.7147 10.8291 13.6893 10.9105 13.7108 10.9807C13.7323 11.0509 13.7889 11.0846 13.8378 11.0565C13.8866 11.0284 13.91 10.947 13.8905 10.874Z" fill="#212B36"/>
<path d="M12.9727 14.4257L12.4453 12.9208L12.1094 12.2778L12.3301 13.0191L12.9727 14.4257Z" fill="#212B36"/>
<path d="M14.0299 11.6153C14.0221 11.5394 13.9733 11.4861 13.9205 11.4945C13.8678 11.5058 13.8307 11.5759 13.8365 11.6518C13.8444 11.7276 13.8932 11.7809 13.9459 11.7725C14.0006 11.7641 14.0377 11.6939 14.0299 11.6153Z" fill="#212B36"/>
<path d="M12.502 14.704L12.2637 13.0587L12.0547 12.3091L12.1348 13.1065L12.502 14.704Z" fill="#212B36"/>
</g>
</g>
<defs>
<clipPath id="clip0_12798_5298">
<rect width="24" height="24" fill="white"/>
</clipPath>
</defs>
</svg>
